<svg id="Capa_1" enable-background="new 0 0 512 512" height="512" viewBox="0 0 512 512" width="512" xmlns="http://www.w3.org/2000/svg"><g id="Fan"><path d="m0 16h512v32h-512z" fill="#fffa50"/><path d="m480 496h-448v-448l224-32 224 32z" fill="#ffce33"/><circle cx="256" cy="272" fill="#fffa50" r="192"/><path d="m32 16h448v32h-448z" fill="#ffa65c"/><g fill="#fffa50"><circle cx="80" cy="96" r="16"/><circle cx="80" cy="448" r="16"/><circle cx="432" cy="96" r="16"/><circle cx="432" cy="448" r="16"/><circle cx="256" cy="272" r="32"/></g><path d="m287.893 271.463c-.197-11.398-6.572-20.926-15.709-26.436l49.03-81.715c9.925-16.542 1.392-37.522-16.936-43.542-15.2-4.993-31.382-7.77-48.278-7.77s-33.078 2.777-48.278 7.77c-18.328 6.02-26.861 27-16.936 43.542l49.03 81.715c-9.137 5.51-15.512 15.037-15.709 26.436l-94.841-1.595c-19.288-.324-33.19 17.555-29.24 36.438 3.276 15.66 8.962 31.063 17.409 45.695 8.448 14.632 18.944 27.258 30.868 37.925 14.378 12.862 36.813 9.762 46.176-7.104l46.217-83.254c4.611 2.573 9.65 4.432 15.304 4.432s10.693-1.859 15.303-4.434l46.217 83.254c9.363 16.866 31.798 19.966 46.176 7.104 11.924-10.667 22.421-23.293 30.868-37.925 8.448-14.632 14.134-30.035 17.409-45.695 3.95-18.882-9.952-36.762-29.24-36.438z" fill="#ffce33"/></g></svg>