<svg id="Capa_1" enable-background="new 0 0 512 512" height="512" viewBox="0 0 512 512" width="512" xmlns="http://www.w3.org/2000/svg"><g id="Headset"><path d="m320 256h96v256h-96z" fill="#80eaff" transform="matrix(-1 0 0 -1 736 768)"/><path d="m96 256h96v256h-96z" fill="#80eaff"/><path d="m480 288v-64c0-123.713-100.289-224-224-224s-224 100.287-224 224v64h-32v128l64 64h32l32-96-32-96h-32v-64c0-106.039 85.961-192 192-192s192 85.961 192 192v64h-32l-32 96 32 96h32l64-64v-128z" fill="#4db5ff"/><g fill="#37f"><path d="m96 288h32v192h-32z"/><path d="m384 288h32v192h-32z" transform="matrix(-1 0 0 -1 800 768)"/></g></g></svg>